#!OML:ASF F:\VICON\USERDATA\INSTALL\rory3\rory3.ASF
:FULLY-SPECIFIED
:DEGREES
37
root 0.02933340971064055 18.52448706161905 14.938116897051804 4.488500852390817 -2.0751574540086506 0.46276939114509075
lfemur 14.518993099536017 -5.223225379488056 -27.610162475485417
ltibia 46.26432202771193
lfoot 23.292480457633506 -16.901718439523123
ltoes -7.40294697844008
rfemur -38.82879790972444 -0.05914683006485777 26.636801070996025
rtibia 27.174142240224967
rfoot 5.499504596052809 -2.1636693689198347
rtoes -12.387464940427023
lowerback 14.677873901002798 -1.75093686569399 -1.7732485321683356
upperback -1.3006804410806034 -2.5123411788697183 2.0793704469057372
thorax -9.349616898712405 -1.005574528169971 4.406026700137628
lowerneck -21.53605676989945 -2.1389153327621186 -2.226661539941829
upperneck 13.77304115320872 -2.584546025919978 1.9263550176790747
head 7.754910749301503 -1.1343561368986643 0.6004077831197915
lclavicle -1.4195599772535192e-15 2.007972489078505e-15
lhumerus -36.27533026137219 -20.695506084924688 94.87248210881637
lradius 115.18051932382956
lwrist 33.996724979777866
lhand -24.536894773968125 0.7399412982912035
lfingers 7.12502
lthumb 1.9588949557378363 30.711712397464073
rclavicle -1.4195599772535192e-15 2.007972489078505e-15
rhumerus -65.13242787698479 -0.4683226388657573 -93.82840283332408
rradius 112.48650328367172
rwrist -8.274578084779868
rhand -16.321766495727246 40.614833288209745
rfingers 7.12502
rthumb 9.888940939152914 10.506424336123633
38
root 0.03618107790579664 18.365957108606214 15.447935834852089 3.741006641093301 -2.3587242205088264 0.36741472690415655
lfemur 12.629198795683392 -4.374175646431827 -26.8137237772967
ltibia 53.169941083935356
lfoot 22.11919304487742 -16.568344986136808
ltoes -4.977994410737291
rfemur -37.80175631777261 -0.3037999190635847 27.21142149132159
rtibia 30.02427290085862
rfoot 4.754966873064477 -1.028481940943359
rtoes -6.952896381078803
lowerback 15.073289107008268 -1.540192851894004 -1.6069962861262794
upperback -1.0225974937863158 -2.206752969891827 2.063763232748996
thorax -9.402006400298719 -0.872681263752164 4.217069440345594
lowerneck -21.303996350137474 -2.192232997090655 -2.2694387751333247
upperneck 13.653557441437046 -2.624233470592331 1.79756647845356
head 7.6928157656495895 -1.1736143746541354 0.5539615108809718
lclavicle -1.456489843214475e-15 1.9811894038462407e-15
lhumerus -37.294197760644394 -20.30965589419294 95.4317182626612
lradius 112.26001161820636
lwrist 33.88659858107554
lhand -25.022079139496352 0.23735944628638705
lfingers 7.12502
lthumb 1.4903268746196978 30.209946022652097
rclavicle -1.456489843214475e-15 1.9811894038462407e-15
rhumerus -64.0153982306843 -0.7433329780301499 -93.83048389002464
rradius 111.72193742692697
rwrist -8.020160127216677
rhand -16.561596512204762 40.64959244796435
rfingers 7.12502
rthumb 9.6575442404703 10.565945041597013
39
root 0.02351897484429602 18.16279151869926 15.595109674634283 3.0144660075294727 -2.8598235692996146 0.06127323763439163
lfemur 10.266002738702197 -2.952525353609183 -25.549577964395358
ltibia 60.519309473716135
lfoot 20.479629826535334 -15.893388466881586
ltoes -3.269683054889632
rfemur -37.07495221929605 -0.31968689324941213 27.958519887981314
rtibia 33.72320693048631
rfoot 2.9936150201573772 -0.1287247351585572
rtoes -0.5909734480820381
lowerback 15.489348389497001 -1.2638386328713804 -1.3245257959171142
upperback -0.7795918501132212 -1.7805786908468146 2.123421750993037
thorax -9.502371186260017 -0.6875069938752038 3.9588860116466993
lowerneck -21.036193460269143 -2.233863948312645 -2.298606873137981
upperneck 13.610310966428267 -2.6547740829586806 1.6342357172959945
head 7.6402898233195575 -1.208251777177385 0.4943639100290044
lclavicle -1.6702697628485222e-15 1.82611864973112e-15
lhumerus -38.529463416189245 -19.80424623741155 96.095090593978
lradius 108.95511072369625
lwrist 33.8128207955299
lhand -25.487046625595944 -0.36145784725316976
lfingers 7.12502
lthumb 1.0412780902106027 29.611794963970176
rclavicle -1.6702697628485222e-15 1.82611864973112e-15
rhumerus -62.632565212389366 -0.36663021524254624 -94.2056163559805
rradius 110.62700629600681
rwrist -7.9197531371117424
rhand -16.817930794035636 40.542320340344006
rfingers 7.12502
rthumb 9.410301992808852 10.486417512734755
40
root -0.006299481293195963 17.898641731783925 15.279199421035731 2.443647296260819 -3.5052257855515694 -0.580838668553262
lfemur 6.558478373693058 -1.4276359074278273 -23.61648216477128
ltibia 67.18793192431505
lfoot 17.46418887289006 -14.472259822440254
ltoes -2.706029947875688
rfemur -36.78397811430918 -0.0038277569767112274 28.793516915324965
rtibia 38.56989103519895
rfoot -0.06683164830268229 -0.28663611547522017
rtoes 5.5491628130537585
lowerback 15.868136982303978 -0.9535687303201217 -0.9427349620465082
upperback -0.5790422009412252 -1.2686986563529579 2.241901080086009
thorax -9.648081005019751 -0.46655034943206297 3.579709777539137
lowerneck -20.976689706878517 -2.338041717752553 -2.270270945551946
upperneck 13.569051077060235 -2.7929827103612004 1.4735682133081822
head 7.616204045296463 -1.2865897614681272 0.4130020444077878
lclavicle -2.4711099715992096e-15 1.245238999992841e-15
lhumerus -40.218691235788604 -19.2637943037442 96.81245659445659
lradius 105.12745047112996
lwrist 33.57805679254081
lhand -25.9001811600876 -0.7297208518326526
lfingers 7.12502
lthumb 0.6422841363326576 29.246010600216913
rclavicle -2.4711099715992096e-15 1.245238999992841e-15
rhumerus -60.96117095800562 0.13074675603458275 -94.63885187636387
rradius 109.30824371688163
rwrist -8.187205654724368
rhand -17.069588857318227 40.434963058562076
rfingers 7.12502
rthumb 9.167491356532503 10.38730650331311
41
root -0.03925091868541403 17.640569332988537 14.89108345958187 2.1370225871539823 -4.199635529471671 -1.4396322804485024
lfemur 2.749634038510939 0.6836309018064282 -20.90691029347865
ltibia 75.03328067412525
lfoot 14.98894279110018 -12.915559314829546
ltoes -2.287998441373132
rfemur -36.192062620843174 0.8959606670286107 29.98022001101982
rtibia 44.63643072775329
rfoot -3.7884516098966596 -1.8429202937232239
rtoes 10.499138763489483
lowerback 16.315786718559522 -0.6279918018190098 -0.3204002457481112
upperback -0.39426756862532464 -0.6825080599397677 2.5167011453589785
thorax -9.81199925587666 -0.21812784019531362 3.2589611972691985
lowerneck -21.05696844257358 -2.3699842775912847 -2.1501385200213377
upperneck 13.566552377076686 -2.842152211506066 1.3206674525983146
head 7.617307035015782 -1.3202264560000887 0.3295229374386243
lclavicle -2.7445671325055836e-15 1.0468827131587206e-15
lhumerus -41.522041302693005 -18.31401975222223 97.38823361094428
lradius 101.43195889614624
lwrist 33.389794052202575
lhand -26.127559315122816 -0.60045432965282
lfingers 7.12502
lthumb 0.422681007422538 29.37856234503383
rclavicle -2.7445671325055836e-15 1.0468827131587206e-15
rhumerus -58.87093925147242 1.1400330864676649 -95.22977411199955
rradius 107.8357952505661
rwrist -8.50251322408846
rhand -17.256397552345632 40.194828857972006
rfingers 7.12502
rthumb 8.98726567230969 10.141230783093587
42
root -0.07579373735266232 17.402969651275146 14.936898325686352 2.0202241394529237 -4.6201454798377934 -2.4536679070683576
lfemur -1.9400045329344842 2.773347095496003 -17.813519437883595
ltibia 82.85236411022069
lfoot 12.47883294295789 -11.189718506268061
ltoes -1.6509045510552696
rfemur -34.45430670665779 2.0612459078033125 31.433207320418756
rtibia 50.49086034340718
rfoot -7.734752059875943 -4.810823118509132
rtoes 13.071001283015647
lowerback 16.778407519257968 -0.28163368488284557 0.5376873333061152
upperback -0.20645529929638695 -0.013839818485582578 2.8747187304284134
thorax -9.965534106626237 0.0578876281090992 2.8988164354725923
lowerneck -21.258590749815593 -2.3684296569478125 -1.9401077204079145
upperneck 13.516342189031416 -2.860265925939953 1.1929670295113661
head 7.625937627699741 -1.3327588554722656 0.2419571572161891
lclavicle -2.6227215820145096e-15 1.1352543191485683e-15
lhumerus -42.85199979904202 -17.25262127399698 97.9682865874507
lradius 98.28570597460367
lwrist 33.138135673287756
lhand -26.14549171500568 0.08040468732514294
lfingers 7.12502
lthumb 0.40535119809974285 30.06252039879092
rclavicle -2.6227215820145096e-15 1.1352543191485683e-15
rhumerus -56.14603606476171 2.659713681968472 -95.73591064293132
rradius 106.67294291297875
rwrist -8.896646064596368
rhand -17.428016200088482 39.94801979099218
rfingers 7.12502
rthumb 8.821711941461658 9.882499233333112
43
root -0.10828144823525555 17.21015124851392 15.453442942770854 2.1556512858292707 -4.635740744334028 -3.4588069337858105
lfemur -7.2520309841818955 4.645466386422389 -14.715992856378083
ltibia 90.08224346566226
lfoot 9.955760981208163 -9.427595756919203
ltoes -1.2710632083144517
rfemur -31.656209850602533 3.2511833440912032 32.981799240122456
rtibia 55.675797306566324
rfoot -11.526787352567053 -8.603970989757325
rtoes 12.860063585427003
lowerback 17.222332135924567 0.05385620343690811 1.4933366501892658
upperback -0.0469673375321773 0.658046663504014 3.265750860090838
thorax -10.09939167069876 0.33183293577151995 2.5791348838027686
lowerneck -21.542423556023618 -2.3771647877458237 -1.7080192063288173
upperneck 13.381808261696762 -2.8944319961807747 1.1509380479456206
head 7.624357966227395 -1.3482246438609145 0.17877148700047457
lclavicle -2.058324217678056e-15 1.544629709257228e-15
lhumerus -44.24971440674927 -16.181400433963315 98.58411765325847
lradius 96.20629970907521
lwrist 33.00074381820099
lhand -26.00865810464702 1.0310717249943309
lfingers 7.12502
lthumb 0.5374867013346722 31.015173025806085
rclavicle -2.058324217678056e-15 1.544629709257228e-15
rhumerus -52.923660718737686 4.565516488178291 -96.02825097512098
rradius 106.01063895239413
rwrist -9.228796016779707
rhand -17.489974626013755 39.71820130093202
rfingers 7.12502
rthumb 8.76195119467099 9.648770040278453
